<svg width="169" height="44" viewBox="0 0 169 44" fill="none" xmlns="http://www.w3.org/2000/svg">
<path fill-rule="evenodd" clip-rule="evenodd" d="M5.38916 22.5871H0V38.9127H5.38916C10.0913 38.9127 13.7941 35.3056 13.7941 30.7454C13.7941 26.1853 10.0824 22.5781 5.38916 22.5781V22.5871ZM5.38916 35.8578H3.33699V25.642H5.38916C8.40494 25.642 10.4303 27.9221 10.4303 30.7454C10.4303 33.5688 8.40494 35.8489 5.38916 35.8489V35.8578ZM28.7035 28.8216C28.1235 27.833 26.8119 27.1828 25.3308 27.1828C22.1901 27.1828 19.9327 29.6232 19.9327 32.9632C19.9327 36.3031 22.199 38.699 25.3308 38.699C26.803 38.699 28.0522 38.0577 28.6321 37.0869V38.0755C28.6321 39.8746 27.4811 41.0948 25.6074 41.0948C24.2244 41.0948 23.3679 40.7475 22.6273 39.8034L20.4324 41.647C21.4674 43.1166 23.1894 43.9271 25.5539 43.9271C29.105 43.9271 31.7639 42.1013 31.7639 37.9597V27.4055H28.6946V28.8127L28.7035 28.8216ZM26.0535 35.8667C24.4832 35.8667 23.2162 34.691 23.2162 32.9632C23.2162 31.2353 24.4832 30.0329 26.0535 30.0329C27.6239 30.0329 28.8909 31.1819 28.8909 32.9632C28.8909 34.7445 27.6239 35.8667 26.0535 35.8667ZM15.3109 38.9127H18.4695V27.4144L15.3377 30.024L15.3109 38.9127ZM43.2292 34.308V30.2556H45.6561V27.4946H43.2292V22.9789L40.0885 25.6064V27.4946H38.4736V30.2556H40.0885V34.9315C40.0885 37.7192 42.0247 39.0552 44.4516 39.0552C45.3528 39.0552 45.9506 38.9662 46.4324 38.8058V36.0448C46.0844 36.1873 45.674 36.2319 45.1832 36.2319C43.8003 36.2319 43.2203 35.7242 43.2203 34.317L43.2292 34.308ZM60.3336 24.2971L60.3157 38.9216H63.4743V21.6697L60.3336 24.2971ZM33.6287 38.9216H36.7872V27.4233L33.6555 30.0329L33.6287 38.9216ZM55.8723 28.7058C55.3638 27.9666 54.1414 27.165 52.5532 27.165C49.4839 27.165 47.1373 29.8993 47.1373 33.168C47.1373 36.4367 49.4839 39.171 52.5532 39.171C54.1414 39.171 55.3638 38.3694 55.8723 37.6302V38.9216H59.0309V27.4233H55.8723V28.7147V28.7058ZM53.2224 36.2942C51.4914 36.2942 50.3226 34.9582 50.3226 33.168C50.3226 31.3778 51.5003 30.0418 53.2224 30.0418C54.9444 30.0418 56.1222 31.3778 56.1222 33.168C56.1222 34.9582 54.9444 36.2942 53.2224 36.2942ZM35.1901 21.9458C34.164 21.9458 33.2986 22.7919 33.2986 23.834C33.2986 24.876 34.173 25.7221 35.1901 25.7221C36.2073 25.7221 37.1084 24.876 37.1084 23.834C37.1084 22.7919 36.2608 21.9458 35.1901 21.9458ZM16.8902 21.9458C15.8641 21.9458 14.9986 22.7919 14.9986 23.834C14.9986 24.876 15.873 25.7221 16.8902 25.7221C17.9073 25.7221 18.8085 24.876 18.8085 23.834C18.8085 22.7919 17.9609 21.9458 16.8902 21.9458Z" fill="#6432FA"/>
<path d="M156.205 6.9206V5.07695H153.136V16.504H156.277V11.0354C156.277 8.94238 157.267 7.98938 158.748 7.98938C159.257 7.98938 159.694 8.07845 160.185 8.24767V5.06804C159.792 4.95226 159.444 4.92554 159.123 4.92554C157.686 4.92554 156.607 5.78056 156.214 6.91169L156.205 6.9206Z" fill="#6432FA"/>
<path d="M169 7.83803V5.0681H165.77V0.55249L162.629 3.17992V5.0681H161.015V7.83803H162.629V12.514C162.629 15.3017 164.566 16.6377 166.993 16.6377C167.876 16.6377 168.492 16.5486 169 16.3794V13.6095C168.634 13.752 168.215 13.8143 167.706 13.8143C166.341 13.8143 165.761 13.2799 165.761 11.8816V7.82913H169V7.83803Z" fill="#6432FA"/>
<path d="M148.122 6.47522C147.64 5.57566 146.435 4.8186 144.776 4.8186C141.546 4.8186 139.369 7.44603 139.369 10.786C139.369 14.1259 141.358 16.7534 144.633 16.7534C146.301 16.7534 147.631 15.9963 148.122 15.1146V16.4951H151.191V5.06799H148.122V6.47522ZM145.418 13.8944C143.705 13.8944 142.643 12.5762 142.643 10.786C142.643 8.99577 143.705 7.70432 145.418 7.70432C147.131 7.70432 148.309 9.02249 148.309 10.786C148.309 12.5495 147.149 13.8944 145.418 13.8944Z" fill="#6432FA"/>
<path d="M134.684 6.47498C134.113 5.48636 132.793 4.83618 131.312 4.83618C128.171 4.83618 125.905 7.27657 125.905 10.6165C125.905 13.9565 128.171 16.3612 131.312 16.3612C132.784 16.3612 134.033 15.72 134.613 14.7492V15.7378C134.613 17.5369 133.453 18.7571 131.588 18.7571C130.205 18.7571 129.349 18.4097 128.608 17.4656L126.413 19.3093C127.448 20.7789 129.17 21.5894 131.544 21.5894C135.095 21.5894 137.754 19.7635 137.754 15.622V5.06775H134.684V6.47498ZM132.034 13.529C130.464 13.529 129.188 12.3533 129.188 10.6254C129.188 8.89756 130.455 7.69518 132.034 7.69518C133.614 7.69518 134.881 8.85303 134.881 10.6254C134.881 12.3978 133.614 13.529 132.034 13.529Z" fill="#6432FA"/>
<path d="M121.622 0.55249L118.481 3.17992V5.0681H116.866V7.83803H118.481V12.514C118.481 15.3017 120.417 16.6377 122.844 16.6377C123.728 16.6377 124.343 16.5486 124.834 16.3794V13.6095C124.486 13.752 124.067 13.7965 123.567 13.7965C122.202 13.7965 121.631 13.2888 121.631 11.8816V7.82913H124.861V5.0592H121.631V0.55249H121.622Z" fill="#6432FA"/>
<path d="M104.143 10.9014C104.143 13.1191 103.197 13.894 101.787 13.894C100.378 13.894 99.8422 12.9054 99.8422 11.1775V5.06763H96.7015V11.7119C96.7015 14.7579 98.2273 16.7619 101.002 16.7619C102.474 16.7619 103.616 16.1384 104.214 15.1231V16.5036H107.284V5.06763H104.143V10.9014Z" fill="#6432FA"/>
<path d="M91.9905 0.55249L88.8498 3.17992V5.0681H87.2349V7.83803H88.8498V12.514C88.8498 15.3017 90.786 16.6377 93.2129 16.6377C94.0962 16.6377 94.7119 16.5486 95.2205 16.3794V13.6095C94.8546 13.752 94.4353 13.8143 93.9267 13.8143C92.5883 13.8143 91.9816 13.2799 91.9816 11.8816V7.82913H95.2115V5.0592H91.9816V0.55249H91.9905Z" fill="#6432FA"/>
<path d="M82.6843 7.05397L81.3637 6.57302C79.6506 5.94956 78.8476 5.51314 78.8476 4.55124C78.8476 3.58933 79.9094 3.09947 81.0158 3.09947C82.1221 3.09947 83.0947 3.49136 83.7906 4.3642L86.2175 2.33351C84.6918 0.676896 83.0412 0 80.9979 0C77.8304 0 75.5017 1.93272 75.5017 4.86297C75.5017 7.07179 76.9114 8.56808 79.5168 9.49436L80.8819 9.97532C82.4969 10.5453 83.1661 11.151 83.1661 12.0684C83.1661 12.9857 82.2649 13.6359 80.9087 13.6359C79.374 13.6359 77.9554 12.8967 77.0988 11.6497L74.6541 13.7072C75.9478 15.5241 78.0535 16.771 80.7748 16.771C84.1921 16.771 86.5298 14.7848 86.5477 11.8902C86.5477 9.42311 85.0755 7.92681 82.6932 7.04507L82.6843 7.05397Z" fill="#6432FA"/>
<path d="M113.449 11.8905V7.83803H115.876V5.0681H113.449V0.55249L110.308 3.17992V5.0681H108.693V7.83803H110.308V12.514C110.308 15.3017 112.244 16.6377 114.671 16.6377C115.572 16.6377 116.17 16.5486 116.661 16.3794V13.6095C116.313 13.752 115.894 13.7965 115.412 13.7965C114.029 13.7965 113.449 13.2888 113.449 11.8816V11.8905Z" fill="#6432FA"/>
<path d="M69.14 11.7389C69.1846 11.2045 69.1846 10.7236 69.1846 10.4475C69.1846 6.70671 66.5436 4.76509 63.5367 4.76509C60.0659 4.76509 57.4962 7.34798 57.4962 10.7236C57.4962 14.3485 60.0391 16.7087 63.5367 16.7087C65.9369 16.7087 67.6053 15.7914 68.6671 14.2149L66.6774 12.5494C66.1688 13.3332 65.1071 14.0279 63.7152 14.0279C62.2073 14.0279 60.8421 13.2441 60.6548 11.7389H69.14ZM66.0439 9.44992H60.6726C61.0027 7.97144 62.2876 7.3658 63.4564 7.3658C64.6253 7.3658 65.7941 8.00707 66.0439 9.44992ZM38.0453 11.7389C38.0988 11.2045 38.0988 10.7236 38.0988 10.4475C38.0988 6.70671 35.4578 4.76509 32.4509 4.76509C28.9801 4.76509 26.4104 7.34798 26.4104 10.7236C26.4104 14.3485 28.9533 16.7087 32.4509 16.7087C34.8511 16.7087 36.5196 15.7914 37.5813 14.2149L35.5916 12.5494C35.083 13.3332 34.0213 14.0279 32.6294 14.0279C31.1304 14.0279 29.7563 13.2441 29.569 11.7389H38.0453ZM34.9492 9.44992H29.5779C29.908 7.97144 31.1929 7.3658 32.3528 7.3658C33.5127 7.3658 34.6905 8.00707 34.9403 9.44992M50.7865 8.1852C50.7865 7.72206 51.3219 7.40142 52.0357 7.40142C52.8209 7.40142 53.5168 7.67752 54.1414 8.30098L56.2471 6.54639C55.3013 5.34401 53.8648 4.76509 52.1517 4.76509C49.7515 4.76509 47.9581 6.15451 47.9403 8.22973C47.8868 10.0021 48.8415 11.1422 50.7241 11.6677L52.0178 12.0328C53.1064 12.3624 53.5436 12.6117 53.5436 13.1194C53.5436 13.7251 52.919 14.0368 52.1338 14.0368C51.0185 14.0368 50.1441 13.6004 49.5374 12.8166L47.4317 14.5712C48.4221 16.0051 50.0014 16.6909 51.9732 16.6909C54.5429 16.6909 56.4166 15.257 56.4166 13.0482C56.4166 11.2045 55.3281 10.0467 53.3205 9.49446L52.1606 9.16491C51.0274 8.83537 50.7955 8.61271 50.7955 8.17629M45.3795 7.918C45.8881 7.918 46.3253 8.00707 46.8161 8.17629V4.98775C46.4235 4.87197 46.0755 4.84525 45.7543 4.84525C44.3178 4.84525 43.2292 5.70027 42.8366 6.8314V4.98775H39.7584V16.4416H42.908V10.9729C42.908 8.871 43.8984 7.918 45.3795 7.918ZM25.1434 10.7147C25.1434 7.38361 22.5559 4.75618 19.1297 4.75618C15.7035 4.75618 13.0892 7.39251 13.0892 10.7147C13.0892 14.0368 15.6321 16.6998 19.1297 16.6998C22.4399 16.6998 25.1434 14.0635 25.1434 10.7147ZM21.976 10.7147C21.976 12.496 20.7714 13.7696 19.1297 13.7696C17.488 13.7696 16.2567 12.5049 16.2567 10.7147C16.2567 8.92444 17.4612 7.65971 19.1297 7.65971C20.7982 7.65971 21.976 8.95116 21.976 10.7147ZM11.9382 11.6587C11.9382 9.62805 10.7159 8.29207 8.97598 7.80222C10.0645 7.19657 10.8051 6.04763 10.8051 4.5068C10.8229 2.20891 8.92244 0.178223 5.74605 0.178223H0V16.4416H6.78106C9.90391 16.4416 11.9472 14.3574 11.9472 11.6587M7.57515 5.02338C7.57515 6.03872 6.80782 6.84922 5.65683 6.84922H3.34592V3.21535H5.65683C6.81675 3.21535 7.57515 4.07038 7.57515 5.04119M8.7083 11.5519C8.7083 12.6117 7.89636 13.3955 6.67399 13.3955H3.33699V9.68149H6.67399C7.89636 9.68149 8.7083 10.492 8.7083 11.5519Z" fill="#6432FA"/>
</svg>
