<svg width="452" height="69" viewBox="0 0 452 69" fill="none" xmlns="http://www.w3.org/2000/svg">
<path d="M0.2455 67V1.68H14.2295V67H0.2455ZM26.5697 67V1.68H42.0257L67.9697 46.76V1.68H81.9537V67H66.3137L40.5537 23.484V67H26.5697ZM94.3119 67V1.68H116.852C127.463 1.68 135.62 4.532 141.324 10.236C147.028 15.8787 149.88 23.944 149.88 34.432C149.88 44.8587 147.059 52.8933 141.416 58.536C135.835 64.1787 127.831 67 117.404 67H94.3119ZM108.296 55.224H116.852C123.169 55.224 127.831 53.5373 130.836 50.164C133.903 46.7293 135.436 41.4547 135.436 34.34C135.436 27.2253 133.903 21.9813 130.836 18.608C127.831 15.1733 123.169 13.456 116.852 13.456H108.296V55.224ZM186.103 68.472C180.583 68.472 175.799 67.46 171.751 65.436C167.764 63.412 164.667 60.5293 162.459 56.788C160.251 52.9853 159.147 48.5387 159.147 43.448V1.588H173.131V43.448C173.131 47.68 174.235 50.9613 176.443 53.292C178.712 55.5613 181.932 56.696 186.103 56.696C190.273 56.696 193.463 55.5613 195.671 53.292C197.879 50.9613 198.983 47.68 198.983 43.448V1.588H212.967V43.448C212.967 48.5387 211.863 52.9853 209.655 56.788C207.508 60.5293 204.411 63.412 200.363 65.436C196.315 67.46 191.561 68.472 186.103 68.472ZM251.066 68.472C245.424 68.472 240.578 67.5213 236.53 65.62C232.482 63.7187 229.324 61.0507 227.054 57.616C224.785 54.1813 223.497 50.1333 223.19 45.472L237.266 44.828C237.634 47.404 238.37 49.612 239.474 51.452C240.64 53.2307 242.173 54.58 244.074 55.5C246.037 56.42 248.429 56.88 251.25 56.88C253.581 56.88 255.544 56.604 257.138 56.052C258.794 55.5 260.052 54.672 260.91 53.568C261.769 52.4027 262.198 50.992 262.198 49.336C262.198 47.8027 261.83 46.484 261.094 45.38C260.358 44.2147 258.948 43.172 256.862 42.252C254.777 41.2707 251.71 40.32 247.662 39.4C242.081 38.112 237.573 36.6707 234.138 35.076C230.765 33.4813 228.312 31.488 226.778 29.096C225.245 26.6427 224.478 23.576 224.478 19.896C224.478 15.9707 225.429 12.536 227.33 9.592C229.293 6.648 232.114 4.348 235.794 2.69199C239.474 1.036 243.86 0.207999 248.95 0.207999C254.348 0.207999 258.917 1.15866 262.658 3.06C266.4 4.96133 269.313 7.568 271.398 10.88C273.545 14.192 274.833 17.9947 275.262 22.288L261.278 23.024C261.094 20.7547 260.481 18.792 259.438 17.136C258.396 15.4187 256.985 14.1 255.206 13.18C253.428 12.26 251.281 11.8 248.766 11.8C245.577 11.8 243.062 12.5053 241.222 13.916C239.444 15.3267 238.554 17.1667 238.554 19.436C238.554 21.0307 238.953 22.38 239.75 23.484C240.609 24.5267 241.989 25.4467 243.89 26.244C245.853 27.0413 248.613 27.808 252.17 28.544C258.242 29.7707 263.026 31.3347 266.522 33.236C270.08 35.076 272.594 37.284 274.066 39.86C275.538 42.436 276.274 45.38 276.274 48.692C276.274 52.74 275.232 56.2667 273.146 59.272C271.122 62.216 268.209 64.4853 264.406 66.08C260.665 67.6747 256.218 68.472 251.066 68.472ZM297.86 67V13.456H278.356V1.68H331.532V13.456H311.936V67H297.86ZM337.519 67V1.68H366.131C370.915 1.68 375.055 2.47733 378.551 4.072C382.108 5.66666 384.838 7.936 386.739 10.88C388.64 13.7627 389.591 17.1973 389.591 21.184C389.591 24.1893 388.947 26.8573 387.659 29.188C386.432 31.5187 384.715 33.42 382.507 34.892C380.36 36.364 377.876 37.284 375.055 37.652L374.779 36.824C379.134 36.824 382.446 37.7747 384.715 39.676C386.984 41.516 388.272 44.368 388.579 48.232L390.235 67H375.975L374.779 50.44C374.595 47.9253 373.798 46.0853 372.387 44.92C371.038 43.6933 368.707 43.08 365.395 43.08H351.503V67H337.519ZM351.503 31.396H364.567C367.94 31.396 370.547 30.6293 372.387 29.096C374.288 27.5013 375.239 25.2627 375.239 22.38C375.239 19.436 374.288 17.228 372.387 15.756C370.486 14.2227 367.726 13.456 364.107 13.456H351.503V31.396ZM414.603 67V41.608L391.879 1.68H407.335L421.595 27.992L435.763 1.68H451.219L428.587 41.608V67H414.603Z" fill="url(#paint0_linear_408_82)"/>
<defs>
<linearGradient id="paint0_linear_408_82" x1="-7" y1="-30" x2="453.969" y2="-12.7546" gradientUnits="userSpaceOnUse">
<stop stop-color="#FAFAFA"/>
<stop offset="1" stop-color="#A1A1AA"/>
</linearGradient>
</defs>
</svg>
