<?xml version="1.0" encoding="utf-8"?>
<!-- Generator: Adobe Illustrator 25.4.1, SVG Export Plug-In . SVG Version: 6.00 Build 0)  -->
<svg version="1.1" id="Ebene_1" xmlns="http://www.w3.org/2000/svg" xmlns:xlink="http://www.w3.org/1999/xlink" x="0px" y="0px"
	 viewBox="0 0 439.3 191.5" style="enable-background:new 0 0 439.3 191.5;" xml:space="preserve">
<style type="text/css">
	.st0{fill:#FFFFFF;}
</style>
<g>
	<rect x="75.95" y="90.28" class="st0" width="39.57" height="10.95"/>
	<polygon class="st0" points="102.36,135.93 102.36,110.04 91.45,110.04 91.45,125 70.72,125 70.72,66.49 78.7,66.49 78.7,55.58 
		51.42,55.58 51.42,66.49 59.81,66.49 59.81,125 51.42,125 51.42,135.93 	"/>
	<path class="st0" d="M24.89,24.89v141.73h141.73V24.89H24.89z M155.73,155.73H35.78V35.78h119.95V155.73z"/>
</g>
<polygon class="st0" points="89.15,55.58 89.15,81.46 100.06,81.46 100.06,66.5 120.79,66.5 120.79,125.01 112.8,125.01 
	112.8,135.92 140.09,135.92 140.09,125.02 131.7,125.01 131.7,66.5 140.09,66.5 140.09,55.58 "/>
<g>
	<path class="st0" d="M221.77,66.06h-2.08V53.98h-15.07v12.08h-2.05V41.17h2.05v11.05h15.07V41.17h2.08V66.06z"/>
	<path class="st0" d="M249.41,66.06h-2.26l-3.06-6.75h-12.57l-3.06,6.75h-2.26l11.6-25.32L249.41,66.06z M232.39,57.58h10.87
		l-5.42-12.11L232.39,57.58z"/>
	<path class="st0" d="M272.54,57.11c0,6.09-3.96,9.25-10,9.25s-9.97-3.16-9.97-9.25V41.17h2.05v15.9c0,5.02,3.06,7.52,7.92,7.52
		c4.83,0,7.95-2.5,7.95-7.52v-15.9h2.05V57.11z"/>
	<path class="st0" d="M302.57,49.92l-2.12,0.2c-0.62-4.69-4.58-7.49-9.55-7.49c-6.01,0-10.35,4.03-10.35,10.98
		c0,7.09,4.58,10.98,10.45,10.98c4.93,0,8.65-2.53,9.48-6.99l2.12,0.17c-0.97,5.36-5.52,8.58-11.53,8.58
		c-7.15,0-12.61-4.66-12.61-12.74c0-8.12,5.31-12.74,12.5-12.74C296.98,40.87,301.84,44.34,302.57,49.92z"/>
	<path class="st0" d="M314.72,51.92l12.02,14.14h-2.57l-10.8-12.61l-3.13,3.23v9.38h-2.05V41.17h2.05v12.61l12.26-12.61h2.64
		L314.72,51.92z"/>
	<path class="st0" d="M223.12,108.41h-2.26l-3.06-6.75h-12.57l-3.06,6.75h-2.26l11.6-25.32L223.12,108.41z M206.11,99.93h10.87
		l-5.42-12.11L206.11,99.93z"/>
	<path class="st0" d="M246.25,99.46c0,6.09-3.96,9.25-10,9.25s-9.97-3.16-9.97-9.25V83.53h2.05v15.9c0,5.02,3.06,7.52,7.92,7.52
		c4.83,0,7.95-2.5,7.95-7.52v-15.9h2.05V99.46z"/>
	<path class="st0" d="M269.27,85.26h-13.72v9.62h11.53v1.73h-11.53v11.81h-2.05V83.53h15.77V85.26z"/>
	<path class="st0" d="M293.51,108.41h-2.08V96.33h-15.07v12.08h-2.05V83.53h2.05v11.05h15.07V83.53h2.08V108.41z"/>
	<path class="st0" d="M321.15,108.41h-2.26l-3.06-6.75h-12.57l-3.06,6.75h-2.26l11.6-25.32L321.15,108.41z M304.13,99.93H315
		l-5.42-12.11L304.13,99.93z M308.72,79.67c0,0.73-0.63,1.26-1.35,1.26c-0.73,0-1.32-0.53-1.32-1.26c0-0.67,0.59-1.23,1.32-1.23
		C308.09,78.44,308.72,79,308.72,79.67z M313.13,79.67c0,0.73-0.59,1.26-1.32,1.26s-1.32-0.53-1.32-1.26c0-0.67,0.59-1.23,1.32-1.23
		C312.54,78.44,313.13,79,313.13,79.67z"/>
	<path class="st0" d="M344.28,99.46c0,6.09-3.96,9.25-10,9.25s-9.97-3.16-9.97-9.25V83.53h2.05v15.9c0,5.02,3.06,7.52,7.92,7.52
		c4.83,0,7.95-2.5,7.95-7.52v-15.9h2.05V99.46z"/>
	<path class="st0" d="M367.92,89.75l-2.05,0.13c-0.28-3.13-2.81-4.92-6.49-4.92c-4.38,0-6.53,2.26-6.53,4.99
		c0,3.53,2.88,4.19,6.95,5.09c5.73,1.23,8.99,2.4,8.99,6.75c0,4.79-4.06,6.92-9.03,6.92c-5.21,0-9.27-2.46-9.62-6.85l2.08-0.13
		c0.31,3.26,3.47,5.26,7.54,5.26c3.92,0,6.98-1.6,6.98-5.09c0-3.53-2.95-4.19-7.67-5.26c-4.62-1.03-8.3-2-8.3-6.65
		c0-3.66,2.78-6.75,8.58-6.75C364.14,83.23,367.65,85.59,367.92,89.75z"/>
	<path class="st0" d="M390.46,85.26h-13.68v9.38h12.15v1.73h-12.15v10.28h13.68v1.76h-15.73V83.53h15.73V85.26z"/>
	<path class="st0" d="M412.13,108.41l-6.25-10.51c-0.17,0.03-0.38,0.03-0.59,0.03h-7.43v10.48h-2.05V83.53h9.48
		c4.24,0,7.74,2.33,7.74,7.19c0,3.79-2.08,6.02-5,6.85l6.39,10.85L412.13,108.41L412.13,108.41z M410.95,90.71
		c0-3.79-2.78-5.46-5.9-5.46h-7.19v10.91h7.19C408.17,96.17,410.95,94.51,410.95,90.71z"/>
	<path class="st0" d="M204.61,149h13.89v1.76h-15.94v-24.89h2.05V149z"/>
	<path class="st0" d="M244.03,150.76h-2.26l-3.06-6.75h-12.57l-3.06,6.75h-2.26l11.6-25.32L244.03,150.76z M227.01,142.28h10.87
		l-5.42-12.11L227.01,142.28z"/>
	<path class="st0" d="M275.73,150.76h-2.05v-19.84l-11.53,13.77l-11.57-13.77v19.84h-2.05v-25.22l13.61,16.24l13.58-16.24v25.22
		H275.73z"/>
	<path class="st0" d="M300.59,133.16c0,4.89-3.51,7.29-7.78,7.29h-7.57v10.31h-2.05v-24.89h9.62
		C297.09,125.88,300.59,128.27,300.59,133.16z M285.24,127.61v11.11h7.33c3.13,0,5.9-1.76,5.9-5.56c0-3.83-2.78-5.56-5.9-5.56
		L285.24,127.61L285.24,127.61z"/>
	<path class="st0" d="M321.46,127.61h-13.68v9.38h12.15v1.73h-12.15V149h13.68v1.76h-15.73v-24.89h15.73V127.61z"/>
</g>
</svg>
